<?xml version="1.0" encoding="UTF-8"?>
<svg xmlns="http://www.w3.org/2000/svg" xmlns:xlink="http://www.w3.org/1999/xlink" width="40pt" height="40pt" viewBox="0 0 40 40" version="1.1">
<g id="surface1">
<path style=" stroke:none;fill-rule:nonzero;fill:rgb(0%,0%,0%);fill-opacity:1;" d="M 18.667969 0.078125 C 15.839844 0.414062 14.238281 0.785156 12.308594 1.601562 C 4.347656 4.921875 -0.613281 13.078125 0.132812 21.613281 C 0.921875 30.828125 7.667969 38.148438 16.800781 39.691406 C 18.464844 39.972656 21.535156 39.972656 23.199219 39.691406 C 32.332031 38.148438 39.09375 30.8125 39.867188 21.585938 C 40.746094 11.347656 33.425781 1.972656 23.292969 0.332031 C 22.039062 0.132812 19.441406 -0.0117188 18.667969 0.078125 Z M 8.027344 19.28125 C 8.066406 21.226562 8.066406 21.226562 8.441406 21.546875 C 8.972656 22 10.09375 22 10.625 21.546875 C 11 21.226562 11 21.226562 11.039062 19.28125 L 11.09375 17.332031 L 12.132812 17.332031 L 12.132812 19.359375 C 12.132812 21.171875 12.105469 21.453125 11.867188 21.839844 C 11.480469 22.464844 10.679688 22.800781 9.535156 22.800781 C 8.386719 22.800781 7.585938 22.464844 7.199219 21.839844 C 6.960938 21.453125 6.933594 21.171875 6.933594 19.359375 L 6.933594 17.332031 L 7.972656 17.332031 Z M 18.453125 17.519531 C 19.199219 17.828125 19.425781 18.988281 18.851562 19.613281 C 18.652344 19.839844 18.667969 19.878906 19.011719 20.1875 C 19.347656 20.464844 19.398438 20.613281 19.398438 21.1875 C 19.398438 22 19 22.480469 18.1875 22.667969 C 17.601562 22.8125 14.933594 22.839844 14.613281 22.71875 C 14.425781 22.652344 14.398438 22.28125 14.398438 19.988281 L 14.398438 17.332031 L 16.199219 17.332031 C 17.441406 17.332031 18.148438 17.386719 18.453125 17.519531 Z M 26.132812 17.386719 C 26.132812 17.425781 26.078125 17.601562 26 17.785156 C 25.878906 18.132812 25.867188 18.132812 24.265625 18.132812 L 22.667969 18.132812 L 22.667969 19.601562 L 23.933594 19.601562 C 25.238281 19.601562 25.332031 19.640625 25.066406 20.148438 C 24.945312 20.359375 24.773438 20.398438 23.960938 20.398438 C 23.375 20.398438 22.921875 20.464844 22.828125 20.558594 C 22.734375 20.652344 22.667969 20.972656 22.667969 21.292969 L 22.667969 21.867188 L 26.148438 21.867188 L 26.054688 22.160156 C 25.867188 22.773438 25.800781 22.800781 23.746094 22.800781 C 22.398438 22.800781 21.734375 22.746094 21.625 22.640625 C 21.453125 22.464844 21.386719 17.585938 21.558594 17.425781 C 21.652344 17.320312 26.132812 17.292969 26.132812 17.386719 Z M 32.679688 17.839844 C 33.011719 18.214844 33.066406 18.386719 33.066406 19.011719 C 33.066406 19.707031 33.027344 19.800781 32.585938 20.226562 L 32.105469 20.679688 L 32.652344 21.601562 C 32.960938 22.09375 33.199219 22.574219 33.199219 22.652344 C 33.199219 22.734375 32.960938 22.800781 32.679688 22.800781 C 32.09375 22.800781 31.960938 22.667969 31.265625 21.359375 C 30.90625 20.679688 30.878906 20.667969 30.308594 20.667969 C 29.320312 20.667969 29.199219 20.800781 29.199219 21.878906 L 29.199219 22.8125 L 28.707031 22.773438 L 28.199219 22.734375 L 28.160156 20.199219 C 28.148438 18.8125 28.160156 17.601562 28.199219 17.492188 C 28.253906 17.347656 28.679688 17.320312 30.28125 17.359375 L 32.292969 17.398438 Z M 32.679688 17.839844 "/>
<path style=" stroke:none;fill-rule:nonzero;fill:rgb(0%,0%,0%);fill-opacity:1;" d="M 15.574219 18.214844 C 15.507812 18.265625 15.464844 18.601562 15.464844 18.960938 L 15.464844 19.601562 L 16.480469 19.601562 C 17.667969 19.601562 18 19.464844 18 18.960938 C 18 18.308594 17.828125 18.199219 16.707031 18.160156 C 16.132812 18.132812 15.625 18.160156 15.574219 18.214844 Z M 15.574219 18.214844 "/>
<path style=" stroke:none;fill-rule:nonzero;fill:rgb(0%,0%,0%);fill-opacity:1;" d="M 15.625 20.558594 C 15.535156 20.652344 15.464844 20.972656 15.464844 21.292969 L 15.464844 21.867188 L 16.652344 21.867188 C 17.558594 21.867188 17.894531 21.8125 18.054688 21.652344 C 18.359375 21.359375 18.320312 20.707031 18.011719 20.535156 C 17.652344 20.347656 15.828125 20.359375 15.625 20.558594 Z M 15.625 20.558594 "/>
<path style=" stroke:none;fill-rule:nonzero;fill:rgb(0%,0%,0%);fill-opacity:1;" d="M 29.253906 18.308594 C 29.214844 18.414062 29.199219 18.785156 29.226562 19.148438 L 29.265625 19.800781 L 30.441406 19.800781 C 31.453125 19.800781 31.652344 19.761719 31.8125 19.546875 C 32.054688 19.214844 32.054688 18.785156 31.8125 18.453125 C 31.652344 18.238281 31.425781 18.1875 30.480469 18.148438 C 29.558594 18.121094 29.320312 18.148438 29.253906 18.308594 Z M 29.253906 18.308594 "/>
</g>
</svg>
