<?xml version="1.0" encoding="UTF-8"?>
<svg xmlns="http://www.w3.org/2000/svg" xmlns:xlink="http://www.w3.org/1999/xlink" width="32pt" height="32pt" viewBox="0 0 32 32" version="1.1">
<g id="surface1">
<path style=" stroke:none;fill-rule:nonzero;fill:rgb(0%,0%,0%);fill-opacity:1;" d="M 14.933594 0.0625 C 12.671875 0.332031 11.390625 0.628906 9.84375 1.28125 C 3.476562 3.9375 -0.492188 10.464844 0.105469 17.289062 C 0.734375 24.660156 6.132812 30.515625 13.441406 31.753906 C 14.773438 31.980469 17.226562 31.980469 18.558594 31.753906 C 25.867188 30.515625 31.273438 24.652344 31.894531 17.269531 C 32.597656 9.078125 26.742188 1.578125 18.632812 0.265625 C 17.632812 0.105469 15.550781 -0.0117188 14.933594 0.0625 Z M 6.421875 15.425781 C 6.453125 16.980469 6.453125 16.980469 6.753906 17.238281 C 7.179688 17.601562 8.074219 17.601562 8.5 17.238281 C 8.800781 16.980469 8.800781 16.980469 8.832031 15.425781 L 8.875 13.867188 L 9.707031 13.867188 L 9.707031 15.488281 C 9.707031 16.9375 9.683594 17.164062 9.492188 17.472656 C 9.183594 17.972656 8.542969 18.238281 7.625 18.238281 C 6.710938 18.238281 6.070312 17.972656 5.761719 17.472656 C 5.566406 17.164062 5.546875 16.9375 5.546875 15.488281 L 5.546875 13.867188 L 6.378906 13.867188 Z M 14.761719 14.015625 C 15.359375 14.261719 15.542969 15.1875 15.082031 15.691406 C 14.921875 15.871094 14.933594 15.902344 15.210938 16.148438 C 15.476562 16.375 15.519531 16.492188 15.519531 16.949219 C 15.519531 17.601562 15.199219 17.984375 14.550781 18.132812 C 14.078125 18.25 11.945312 18.273438 11.691406 18.175781 C 11.542969 18.121094 11.519531 17.824219 11.519531 15.988281 L 11.519531 13.867188 L 12.960938 13.867188 C 13.953125 13.867188 14.515625 13.910156 14.761719 14.015625 Z M 20.90625 13.910156 C 20.90625 13.941406 20.863281 14.078125 20.800781 14.230469 C 20.703125 14.507812 20.691406 14.507812 19.414062 14.507812 L 18.132812 14.507812 L 18.132812 15.679688 L 19.148438 15.679688 C 20.191406 15.679688 20.265625 15.710938 20.054688 16.117188 C 19.957031 16.289062 19.820312 16.320312 19.167969 16.320312 C 18.699219 16.320312 18.335938 16.375 18.261719 16.449219 C 18.1875 16.523438 18.132812 16.777344 18.132812 17.035156 L 18.132812 17.492188 L 20.917969 17.492188 L 20.84375 17.726562 C 20.691406 18.21875 20.640625 18.238281 18.996094 18.238281 C 17.921875 18.238281 17.386719 18.199219 17.300781 18.113281 C 17.164062 17.972656 17.109375 14.070312 17.246094 13.941406 C 17.324219 13.855469 20.90625 13.835938 20.90625 13.910156 Z M 26.144531 14.273438 C 26.410156 14.570312 26.453125 14.710938 26.453125 15.210938 C 26.453125 15.765625 26.421875 15.839844 26.070312 16.179688 L 25.683594 16.542969 L 26.121094 17.28125 C 26.367188 17.675781 26.558594 18.058594 26.558594 18.121094 C 26.558594 18.1875 26.367188 18.238281 26.144531 18.238281 C 25.675781 18.238281 25.566406 18.132812 25.011719 17.089844 C 24.726562 16.542969 24.703125 16.535156 24.246094 16.535156 C 23.457031 16.535156 23.359375 16.640625 23.359375 17.503906 L 23.359375 18.25 L 22.964844 18.21875 L 22.558594 18.1875 L 22.527344 16.160156 C 22.515625 15.050781 22.527344 14.078125 22.558594 13.996094 C 22.601562 13.878906 22.945312 13.855469 24.222656 13.886719 L 25.835938 13.921875 Z M 26.144531 14.273438 "/>
<path style=" stroke:none;fill-rule:nonzero;fill:rgb(0%,0%,0%);fill-opacity:1;" d="M 12.457031 14.570312 C 12.40625 14.613281 12.375 14.878906 12.375 15.167969 L 12.375 15.679688 L 13.183594 15.679688 C 14.132812 15.679688 14.398438 15.574219 14.398438 15.167969 C 14.398438 14.644531 14.261719 14.558594 13.367188 14.527344 C 12.90625 14.507812 12.5 14.527344 12.457031 14.570312 Z M 12.457031 14.570312 "/>
<path style=" stroke:none;fill-rule:nonzero;fill:rgb(0%,0%,0%);fill-opacity:1;" d="M 12.5 16.449219 C 12.425781 16.523438 12.375 16.777344 12.375 17.035156 L 12.375 17.492188 L 13.324219 17.492188 C 14.046875 17.492188 14.316406 17.449219 14.441406 17.324219 C 14.6875 17.089844 14.65625 16.566406 14.410156 16.425781 C 14.121094 16.277344 12.660156 16.289062 12.5 16.449219 Z M 12.5 16.449219 "/>
<path style=" stroke:none;fill-rule:nonzero;fill:rgb(0%,0%,0%);fill-opacity:1;" d="M 23.402344 14.644531 C 23.371094 14.730469 23.359375 15.03125 23.382812 15.316406 L 23.414062 15.839844 L 24.351562 15.839844 C 25.164062 15.839844 25.324219 15.808594 25.449219 15.636719 C 25.644531 15.371094 25.644531 15.03125 25.449219 14.761719 C 25.324219 14.59375 25.140625 14.550781 24.382812 14.515625 C 23.648438 14.496094 23.457031 14.515625 23.402344 14.644531 Z M 23.402344 14.644531 "/>
</g>
</svg>
